Coordinates
version=1
nRows=19
nColumns=18
inDegrees=yes

Units are S.I. units (second, meters, Newtons, ...)
Angles are in degrees.

endheader
time	ground_thorax_rot_x	ground_thorax_rot_y	ground_thorax_rot_z	ground_thorax_tx	ground_thorax_ty	ground_thorax_tz	clav_prot	clav_elev	scapula_abduction	scapula_elevation	scapula_upward_rot	scapula_winging	plane_elv	shoulder_elv	axial_rot	elbow_flexion	pro_sup
      2.49000000	      1.64175507	     -5.46681648	     -9.54602930	     -0.00423131	      0.00403036	     -0.00078352	    -20.64817311	     -3.98469901	     -9.07557367	     -3.74437044	     13.25949831	      5.09547232	    -26.63206483	     17.06477396	     40.87900833	      0.00000000	     34.32000000
      2.50000000	      1.83182118	     -5.60097964	     -9.40024938	     -0.00423131	      0.00403036	     -0.00078352	    -20.49905264	     -4.00483383	     -8.94231549	     -3.69145841	     13.03220628	      5.14444351	    -25.70183770	     17.41802111	     39.25313484	      0.00000000	     34.32000000
      2.51000000	      1.60287306	     -5.44687416	     -9.55849521	     -0.00423131	      0.00403036	     -0.00078352	    -20.65556793	     -4.41770638	     -9.18429435	     -3.98439967	     12.90894915	      5.31894846	    -26.32801868	     17.01286296	     42.08716145	      0.00000000	     34.32000000
      2.52000000	      1.63530569	     -5.54449250	     -9.45786293	     -0.00423131	      0.00403036	     -0.00078352	    -20.50590513	     -4.34137529	     -8.97546097	     -3.90211449	     12.85118698	      5.29424174	    -26.23783680	     16.86213364	     44.26483777	      0.00000000	     34.32000000
      2.53000000	      1.41708424	     -5.58328218	     -9.59838256	     -0.00423131	      0.00403036	     -0.00078352	    -20.52205169	     -4.65302262	     -9.08762126	     -4.06883501	     12.57347615	      5.46420878	    -25.10547680	     17.11084256	     40.46636510	      0.00000000	     34.32000000
      2.54000000	      1.43080506	     -5.86016611	     -9.64472269	     -0.00423131	      0.00403036	     -0.00078352	    -20.30068561	     -4.73666952	     -8.68172190	     -4.12042175	     12.57269117	      5.46646366	    -25.06392938	     16.96687108	     40.92548732	      0.00000000	     34.32000000
      2.55000000	      1.48440591	     -5.94321013	     -9.68707597	     -0.00423131	      0.00403036	     -0.00078352	    -20.30835541	     -4.71911662	     -8.71530365	     -4.10011904	     12.54540503	      5.46917062	    -25.06327495	     16.97228969	     40.94248971	      0.00000000	     34.32000000
      2.56000000	      1.51918547	     -5.78788567	     -9.62472852	     -0.00423131	      0.00403036	     -0.00078352	    -20.48052089	     -4.69463434	     -9.01844697	     -4.09234781	     12.55044855	      5.47898712	    -25.83485010	     16.90534215	     42.07647422	      0.00000000	     34.32000000
      2.57000000	      1.45285987	     -5.90063239	     -9.61989839	     -0.00423131	      0.00403036	     -0.00078352	    -20.36865200	     -4.79018125	     -8.95013562	     -4.09017333	     12.28928390	      5.56305096	    -25.18974702	     17.09019269	     41.06410091	      0.00000000	     34.32000000
      2.58000000	      1.48656871	     -5.73740606	     -9.59463562	     -0.00423131	      0.00403036	     -0.00078352	    -20.56614832	     -4.68729408	     -9.24140912	     -4.05833744	     12.42511507	      5.51726193	    -25.55521262	     16.82309921	     41.70807056	      0.00000000	     34.32000000
      2.59000000	      1.59666378	     -5.79416482	     -9.61660669	     -0.00423131	      0.00403036	     -0.00078352	    -20.57632755	     -4.48596953	     -9.11638331	     -3.99245311	     12.75815001	      5.37039833	    -26.45021354	     16.01435459	     48.43184444	      0.00000000	     34.32000000
      2.60000000	      1.65860731	     -5.81072676	     -9.60296450	     -0.00423131	      0.00403036	     -0.00078352	    -20.57609003	     -4.49418819	     -9.12459249	     -3.99396746	     12.73997959	      5.37758673	    -26.44711682	     16.03350639	     48.43836785	      0.00000000	     34.32000000
      2.61000000	      1.59781260	     -5.90629407	     -9.48537782	     -0.00423131	      0.00403036	     -0.00078352	    -20.42449150	     -4.63976847	     -9.03052387	     -4.00239933	     12.38225604	      5.49780085	    -26.02636581	     16.51161650	     46.74961652	      0.00000000	     34.32000000
      2.62000000	      1.64982032	     -5.78110749	     -9.55578830	     -0.00423131	      0.00403036	     -0.00078352	    -20.61957793	     -4.63962922	     -9.20653859	     -4.08906159	     12.66792975	      5.44645470	    -26.83620947	     16.17103763	     48.00656213	      0.00000000	     34.32000000
      2.63000000	      1.51956256	     -5.79763015	     -9.46541320	     -0.00423131	      0.00403036	     -0.00078352	    -20.53059205	     -4.75977122	     -9.20738148	     -4.09078634	     12.34522743	      5.55609213	    -26.42864602	     16.39427303	     46.08948528	      0.00000000	     34.32000000
      2.64000000	      1.55238237	     -5.71124013	     -9.41739254	     -0.00423131	      0.00403036	     -0.00078352	    -20.53094698	     -4.77792069	     -9.19199035	     -4.11032507	     12.36609745	      5.55738348	    -26.41312662	     16.39915771	     46.09759113	      0.00000000	     34.32000000
      2.65000000	      1.67842935	     -5.58439255	     -9.55409212	     -0.00423131	      0.00403036	     -0.00078352	    -20.57608991	     -4.89288362	     -9.39891909	     -4.12881340	     12.09342071	      5.66792683	    -24.48636031	     17.19699001	     40.67755605	      0.00000000	     34.32000000
      2.66000000	      1.68201175	     -5.54127056	     -9.51694339	     -0.00423131	      0.00403036	     -0.00078352	    -20.58245466	     -4.90184828	     -9.39288262	     -4.14298213	     12.11945333	      5.66463118	    -24.48038646	     17.26597030	     40.69300013	      0.00000000	     34.32000000
      2.67000000	      1.73815236	     -5.62771539	     -9.47561978	     -0.00423131	      0.00403036	     -0.00078352	    -20.47679275	     -4.84395935	     -9.20641679	     -4.10002580	     12.14790889	      5.62757886	    -24.41636820	     17.53933643	     40.11338104	      0.00000000	     34.32000000
